<?xml version="1.0" encoding="utf-8"?>
<!-- Generator: Adobe Illustrator 23.0.5, SVG Export Plug-In . SVG Version: 6.00 Build 0)  -->
<svg version="1.1" xmlns="http://www.w3.org/2000/svg" xmlns:xlink="http://www.w3.org/1999/xlink" x="0px" y="0px"
	 viewBox="0 0 300 99" style="enable-background:new 0 0 300 99;" xml:space="preserve">
<style type="text/css">
	.st0{opacity:0.68;fill:none;stroke:#FFFFFF;stroke-miterlimit:10;}
	.st1{opacity:0.68;fill:#FFFFFF;}
	.st2{opacity:0.48;}
	.st3{filter:url(#Adobe_OpacityMaskFilter);}
	.st4{mask:url(#SVGID_1_);}
	.st5{fill:#FFFFFF;}
	.st6{font-family:'Gabriola';}
	.st7{font-size:48px;}
</style>
<g id="linea">
	<path class="st0" d="M29.5,43.5c178.1-7.7,235.9-15,248-21c1.8-0.9,14.6-7.7,18-4c1.8,1.9,0.4,6,0,7c-6.3,17.5-88,3-160,31
		c-11.7,4.5-18,16-9,29"/>
	<circle class="st1" cx="128.5" cy="88.5" r="2"/>
	<line class="st0" x1="129" y1="84" x2="129" y2="80"/>
	<line class="st0" x1="124.5" y1="87.4" x2="120.5" y2="86.6"/>
	<line class="st0" x1="132.6" y1="94.7" x2="130.4" y2="91.3"/>
	<line class="st0" x1="125.2" y1="91" x2="121.8" y2="93"/>
	<line class="st0" x1="135.2" y1="85" x2="131.8" y2="87"/>
</g>
<g id="texto2">
	<g class="st2">
		<defs>
			<filter id="Adobe_OpacityMaskFilter" filterUnits="userSpaceOnUse" x="28.6" y="7.8" width="249.1" height="69.8">
				<feFlood  style="flood-color:white;flood-opacity:1" result="back"/>
				<feBlend  in="SourceGraphic" in2="back" mode="normal"/>
			</filter>
		</defs>
		<mask maskUnits="userSpaceOnUse" x="28.6" y="7.8" width="249.1" height="69.8" id="SVGID_1_">
			<g class="st3">
				<image style="overflow:visible;" width="254" height="75" xlink:href="8895E742.jpg"  transform="matrix(1 0 0 1 26 5)">
				</image>
			</g>
		</mask>
		<g class="st4">
			<g>
				<text transform="matrix(1 0 0 1 29.3018 45.1758)" class="st5 st6 st7">Andres Sanabria</text>
			</g>
		</g>
	</g>
	<text transform="matrix(1 0 0 1 29.3018 43.1758)" class="st5 st6 st7">Andres Sanabria</text>
</g>
</svg>
